<svg xmlns="http://www.w3.org/2000/svg" width="82" height="82" fill="none" viewBox="0 0 82 82">
<symbol id="ico" viewBox="0 0 82 82">
  <g stroke="#000" stroke-linecap="round" stroke-linejoin="round" stroke-width="6" clip-path="url(#clip0)" opacity=".8">
    <path d="M41.43 50.78a10.02 10.02 0 100-20.04 10.02 10.02 0 000 20.04z"/>
    <path d="M66.15 50.78a5.51 5.51 0 001.1 6.08l.2.2A6.68 6.68 0 1158 66.5l-.2-.2a5.51 5.51 0 00-6.08-1.1 5.51 5.51 0 00-3.34 5.04v.57a6.68 6.68 0 01-13.36 0v-.3a5.51 5.51 0 00-3.6-5.05 5.51 5.51 0 00-6.09 1.1l-.2.2a6.68 6.68 0 11-9.45-9.45l.2-.2a5.51 5.51 0 001.1-6.08 5.51 5.51 0 00-5.04-3.34h-.57a6.68 6.68 0 010-13.36h.3a5.51 5.51 0 005.05-3.6 5.51 5.51 0 00-1.1-6.08l-.2-.2A6.68 6.68 0 1124.85 15l.2.2a5.51 5.51 0 006.08 1.1h.27a5.51 5.51 0 003.34-5.04v-.57a6.68 6.68 0 0113.36 0v.3a5.51 5.51 0 003.34 5.04 5.51 5.51 0 006.08-1.1l.2-.2a6.68 6.68 0 119.45 9.45l-.2.2a5.51 5.51 0 00-1.1 6.08v.27a5.51 5.51 0 005.04 3.34h.57a6.68 6.68 0 110 13.36h-.3a5.51 5.51 0 00-5.04 3.34v0z"/>
  </g>
  <defs>
    <clipPath id="clip0">
      <path fill="#fff" d="M0 0h81v81H0z" transform="translate(.78 .22)"/>
    </clipPath>
  </defs>
  </symbol>
</svg>
